
<svg width="300" height="300" xmlns="http://www.w3.org/2000/svg">
 <!-- Created with Method Draw - http://github.com/duopixel/Method-Draw/ -->

 <g>
  <title>background</title>
  <rect fill="none" id="canvas_background" height="302" width="302" y="-1" x="-1"/>
  <g display="none" overflow="visible" y="0" x="0" height="100%" width="100%" id="canvasGrid">
   <rect fill="url(#gridpattern)" stroke-width="0" y="0" x="0" height="100%" width="100%"/>
  </g>
 </g>
 <g>
  <title>Layer 1</title>
  <rect rx="20" id="svg_12" height="70" width="119" y="36" x="90.5" stroke-width="15" stroke="#53585f" fill="none"/>
  <rect stroke="#000" rx="20" id="svg_2" height="164.999996" width="287.000009" y="67.500003" x="6.5" stroke-width="0" fill="#53585f"/>
  <g stroke="null" transform="rotate(16.0948543548584 229.30683898925793,162.10018920898438) " id="svg_11">
   <g stroke="null" transform="matrix(0.22392545355145926,0,0,0.22392545355145926,-611.4390773760283,-710.743614214795) " id="svg_6" fill-rule="evenodd" fill="none">
    <path stroke="#fff" id="svg_7" fill="#563d7c" d="m3545.075104,4053.396658c0,29.841 24.19,54.03 54.03,54.03l310.95,0c29.841,0 54.03,-24.19 54.03,-54.03l0,-310.95c0,-29.841 -24.19,-54.03 -54.03,-54.03l-310.95,0c-29.841,0 -54.03,24.19 -54.03,54.03l0,310.95"/>
    <g stroke="null" id="svg_8" fill="#fff">
     <path stroke="null" id="svg_9" d="m3718.825104,3873.766658l0,-59.34l52.23,0c4.974,0 9.771,0.415 14.39,1.244c4.619,0.829 8.705,2.31 12.258,4.441c3.553,2.132 6.396,5.093 8.527,8.883c2.132,3.79 3.198,8.646 3.198,14.568c0,10.659 -3.198,18.358 -9.593,23.1c-6.396,4.737 -14.568,7.106 -24.516,7.106l-56.49,0m-55.784,-102.68l0,253.69l122.94,0c11.37,0 22.444,-1.421 33.22,-4.264c10.778,-2.842 20.371,-7.225 28.78,-13.146c8.409,-5.922 15.1,-13.561 20.08,-22.918c4.974,-9.357 7.462,-20.43 7.462,-33.22c0,-15.871 -3.849,-29.431 -11.548,-40.683c-7.698,-11.252 -19.364,-19.13 -34.998,-23.628c11.37,-5.448 19.957,-12.436 25.76,-20.963c5.803,-8.527 8.705,-19.19 8.705,-31.978c0,-11.844 -1.954,-21.792 -5.863,-29.846c-3.908,-8.05 -9.416,-14.508 -16.522,-19.364c-7.106,-4.856 -15.634,-8.35 -25.582,-10.482c-9.949,-2.132 -20.963,-3.198 -33.04,-3.198l-119.38,0m55.784,210.34l0,-69.64l60.758,0c12.08,0 21.792,2.783 29.14,8.35c7.343,5.567 11.01,14.864 11.01,27.892c0,6.632 -1.125,12.08 -3.375,16.344c-2.25,4.264 -5.27,7.639 -9.06,10.126c-3.79,2.487 -8.172,4.264 -13.146,5.33c-4.974,1.066 -10.186,1.599 -15.634,1.599l-59.692,0"/>
     <path stroke="null" id="svg_10" d="m3894.265104,4010.596658l-18.15,-3.253c1.509,-5.783 4.408,-10.214 8.697,-13.294c4.29,-3.08 10.363,-4.62 18.22,-4.62c9.02,0 15.541,1.681 19.563,5.04c4.02,3.363 6.03,7.59 6.03,12.681c0,2.986 -0.817,5.688 -2.451,8.108c-1.634,2.42 -4.101,4.541 -7.401,6.364c2.671,0.66 4.714,1.43 6.128,2.31c2.294,1.414 4.078,3.276 5.35,5.586c1.273,2.31 1.909,5.068 1.909,8.273c0,4.02 -1.053,7.88 -3.158,11.573c-2.106,3.693 -5.138,6.537 -9.1,8.532c-3.96,1.996 -9.161,2.993 -15.604,2.993c-6.285,0 -11.243,-0.739 -14.873,-2.216c-3.63,-1.477 -6.615,-3.638 -8.957,-6.482c-2.341,-2.844 -4.141,-6.419 -5.398,-10.724l19.19,-2.546c0.754,3.866 1.925,6.545 3.512,8.04c1.587,1.493 3.606,2.239 6.06,2.239c2.577,0 4.722,-0.943 6.435,-2.828c1.713,-1.886 2.569,-4.4 2.569,-7.543c0,-3.206 -0.825,-5.688 -2.475,-7.448c-1.65,-1.76 -3.889,-2.64 -6.718,-2.64c-1.509,0 -3.583,0.377 -6.223,1.131l0.99,-13.718c1.069,0.157 1.901,0.236 2.498,0.236c2.514,0 4.612,-0.801 6.293,-2.404c1.681,-1.603 2.522,-3.504 2.522,-5.704c0,-2.106 -0.629,-3.787 -1.886,-5.04c-1.257,-1.257 -2.986,-1.886 -5.185,-1.886c-2.263,0 -4.101,0.684 -5.515,2.051c-1.414,1.367 -2.373,3.763 -2.876,7.189"/>
    </g>
   </g>
  </g>
  <path stroke="#000" d="m39.506695,17c0,0 0,0 0,2.682353c0,2.682353 -0.25943,5.404899 0,10.729412c0.534828,10.976759 1.793451,21.484743 2.123291,34.870589c0.531852,21.584027 3.394696,40.016916 6.369874,59.011766c4.57256,29.193244 8.145599,52.865083 10.616457,69.741179c1.51868,10.37265 4.159851,16.394909 8.493166,24.141177c6.249602,11.171819 15.935888,15.799242 27.602789,18.776471c9.564953,2.440849 15.924686,8.047059 23.356206,8.047059c4.246583,0 6.369874,-2.682353 6.369874,-5.364706c0,-2.682353 1.061646,-2.682353 1.061646,-5.364706c0,-2.682353 -1.683542,1.111071 -3.184937,-2.682353c-0.750698,-1.896712 -3.184937,-2.682353 -6.369874,-2.682353c-1.061646,0 -5.378453,-1.776605 -11.678103,-5.364706c-7.539692,-4.294401 -12.67389,-6.701298 -19.109623,-8.047059c-1.058025,-0.221244 -4.557531,-0.785641 -5.308229,-2.682353c-0.750698,-1.896712 -1.061646,-5.364706 -1.061646,-13.411765c0,-8.047059 0,-29.505883 3.184937,-56.329413c3.184937,-26.82353 9.822289,-61.373601 12.739749,-77.788238c2.342057,-13.177229 3.92112,-22.689496 5.308229,-24.141177c0.980835,-1.02649 1.061646,-2.682353 1.061646,0c0,0 -0.310948,6.150347 -1.061646,8.047059c-0.750698,1.896712 -1.061646,2.682353 -2.123291,2.682353c-1.061646,0 -1.061646,0 -3.184937,0c0,0 -1.061646,0 -1.061646,0l-1.061646,0l0,0l0,0" id="svg_13" stroke-opacity="null" stroke-width="0" fill="none"/>
 </g>
</svg>
