<?xml version="1.0" encoding="UTF-8"?>
<svg id="Capa_1" data-name="Capa 1" xmlns="http://www.w3.org/2000/svg" viewBox="0 0 1882.85 250.96">
  <g id="Page-1">
    <g id="present_day_filled" data-name="present day filled">
      <path id="briefcase_-business_-travel_-industry_-corporate_-handbag" data-name="briefcase,-business,-travel,-industry,-corporate,-handbag" d="M115.38,105.2c-42.63,0-81.08-6.12-115.38-18.32v-22.4c0-11.25,9.12-20.36,20.36-20.36h40.72v27.15c0,3.75,3.04,6.79,6.79,6.79s6.79-3.04,6.79-6.79v-27.15h81.45v27.15c0,3.75,3.04,6.79,6.79,6.79s6.79-3.04,6.79-6.79v-27.15h40.72c11.25,0,20.36,9.12,20.36,20.36v22.4c-34.3,12.2-72.75,18.32-115.38,18.32ZM230.76,179.86c0,11.25-9.12,20.36-20.36,20.36H20.36c-11.25,0-20.36-9.12-20.36-20.36v-78.61c34.65,11.69,73.12,17.53,115.38,17.53s80.73-5.83,115.38-17.53v78.61ZM98.41,152.71h33.94c3.75,0,6.79-3.04,6.79-6.79s-3.04-6.79-6.79-6.79h-33.94c-3.75,0-6.79,3.04-6.79,6.79s3.04,6.79,6.79,6.79ZM74.66,44.12h-13.57v-13.57c0-14.99,12.15-27.15,27.15-27.15h54.3c14.99,0,27.15,12.15,27.15,27.15v13.57h-13.57v-13.57c0-7.5-6.08-13.57-13.57-13.57h-54.3c-7.5,0-13.57,6.08-13.57,13.57v13.57h0Z"/>
    </g>
  </g>
  <g>
    <path d="M278.64,8.86h145.29v46.73h-13.16c-1.97-7.7-3.92-13.78-5.84-18.26-1.93-4.48-3.96-7.88-6.11-10.21-2.15-2.33-4.46-3.98-6.92-4.97-2.46-.98-6.16-1.48-11.08-1.48h-17.05v137.5c0,5.28.29,9.49.87,12.62.58,3.13,1.48,5.62,2.69,7.45,1.21,1.84,2.84,3.27,4.9,4.3,2.06,1.03,5.28,2.04,9.67,3.02v6.58h-61.36v-6.58c2.69-.62,5.06-1.3,7.12-2.01,2.06-.72,3.74-1.59,5.04-2.62,1.3-1.03,2.37-2.35,3.22-3.96.85-1.61,1.52-3.8,2.01-6.58.49-2.77.74-6.85.74-12.22V20.68h-16.92c-4.21,0-7.68.4-10.41,1.21-2.73.81-5.26,2.48-7.59,5.04-2.33,2.55-4.46,6.18-6.38,10.88-1.93,4.7-3.74,10.63-5.44,17.79h-13.29V8.86Z"/>
    <path d="M481.81,84.86l.54.13c6.98-7.07,12.51-12.02,16.58-14.84,4.07-2.82,8.1-4.94,12.08-6.38,3.98-1.43,8.26-2.15,12.82-2.15,4.92,0,9.31.58,13.16,1.75,3.85,1.16,7.23,2.93,10.14,5.3,2.91,2.37,5.28,5.28,7.12,8.73,1.83,3.45,3.2,7.57,4.09,12.35.89,4.79,1.34,10.86,1.34,18.2v50.62c0,7.79.33,13.09,1.01,15.91.67,2.82,1.88,5.01,3.62,6.58,1.75,1.57,5.26,3.07,10.54,4.5v6.58h-52.91v-6.58c3.49-1.07,6-2.01,7.52-2.82,1.52-.81,2.8-1.92,3.83-3.36,1.03-1.43,1.83-3.65,2.42-6.65.58-3,.87-7.54.87-13.63v-35.18c0-11.9-.6-21.01-1.81-27.33-1.21-6.31-3.58-11.03-7.12-14.17-3.54-3.13-8.48-4.7-14.84-4.7-3.58,0-6.8.63-9.67,1.88-2.87,1.25-6.18,3.49-9.94,6.71s-6.6,6.54-8.53,9.94c-1.93,3.4-2.89,7.03-2.89,10.88v51.43c0,6.09.15,10.43.47,13.02.31,2.6.92,4.77,1.81,6.51.89,1.75,2.26,3.18,4.1,4.3,1.83,1.12,4.68,2.17,8.53,3.16v6.58h-53.17v-6.58c3.94-1.07,6.76-2.1,8.46-3.09,1.7-.98,3.02-2.24,3.96-3.76.94-1.52,1.63-3.71,2.08-6.58.45-2.86.67-7.38.67-13.56V46.19c0-8.59-.07-14.59-.2-17.99-.13-3.4-.49-6.29-1.07-8.66-.58-2.37-1.39-4.23-2.42-5.57-1.03-1.34-2.42-2.42-4.16-3.22-1.75-.81-4.9-1.61-9.47-2.42V1.34l32.36-1.34h8.06v84.86Z"/>
    <path d="M704.84,169.32c-5.73,6-10.99,10.7-15.78,14.1-4.79,3.4-10.05,6.07-15.78,7.99-5.73,1.92-12.04,2.89-18.93,2.89-18.44,0-32.36-5.53-41.76-16.58-9.4-11.05-14.1-27.37-14.1-48.94,0-13.34,2.39-25.11,7.18-35.31,4.79-10.21,11.62-18.08,20.48-23.63,8.86-5.55,19.07-8.33,30.62-8.33,9.04,0,16.74,1.43,23.1,4.3,6.36,2.87,11.43,6.78,15.24,11.75,3.8,4.97,6.76,11.24,8.86,18.8,2.1,7.57,3.29,17.43,3.56,29.61h-84.59v2.42c0,10.56,1.19,19.45,3.56,26.65,2.37,7.21,6.26,12.85,11.68,16.92,5.42,4.08,12.46,6.11,21.15,6.11,7.34,0,13.94-1.36,19.81-4.09,5.86-2.73,11.7-7.18,17.52-13.36l8.19,8.73ZM682.28,114.81c-.54-9.67-1.75-17.57-3.62-23.7-1.88-6.13-4.7-10.83-8.46-14.1-3.76-3.27-8.68-4.9-14.77-4.9-9.22,0-16.58,3.69-22.09,11.08-5.5,7.38-8.75,17.93-9.74,31.62h58.68Z"/>
    <path d="M919.15,12.76v37.19h-13.29c-2.15-7.79-4.88-13.99-8.19-18.6-3.31-4.61-7.16-7.9-11.55-9.87-4.39-1.97-9.67-2.95-15.84-2.95-9.22,0-17.44,3.07-24.64,9.2-7.21,6.13-12.87,15.35-16.99,27.66-4.12,12.31-6.18,27.19-6.18,44.65s1.7,32.52,5.1,44.92c3.4,12.4,8.41,21.75,15.04,28.06,6.62,6.31,14.77,9.47,24.44,9.47,7.34,0,13.34-1.05,17.99-3.16,4.65-2.1,8.57-5.44,11.75-10,3.18-4.57,6.2-11.28,9.06-20.14h13.29v38.4c-8.42,2.24-17.03,3.92-25.85,5.04-8.82,1.12-18.51,1.68-29.07,1.68-22.74,0-39.93-7.7-51.56-23.1-11.64-15.4-17.46-38.36-17.46-68.88,0-19.16,3.02-35.94,9.06-50.35,6.04-14.41,14.93-25.56,26.65-33.44,11.73-7.88,25.73-11.82,42.03-11.82,8.14,0,15.66.43,22.56,1.28,6.89.85,14.77,2.44,23.63,4.77Z"/>
    <path d="M1005.35,194.3c-18.62,0-32.83-5.48-42.63-16.45-9.8-10.96-14.7-27.19-14.7-48.68,0-14.77,2.57-27.26,7.72-37.46,5.15-10.21,12.2-17.79,21.15-22.76,8.95-4.97,19.16-7.45,30.62-7.45,19.16,0,33.66,5.57,43.51,16.72,9.85,11.15,14.77,27.15,14.77,48,0,14.86-2.46,27.39-7.39,37.6-4.92,10.21-11.91,17.84-20.95,22.89-9.04,5.06-19.74,7.59-32.09,7.59ZM973.39,126.35c0,18.44,2.93,32.61,8.79,42.5,5.86,9.89,14.25,14.84,25.18,14.84,6,0,11.1-1.45,15.31-4.36,4.21-2.91,7.63-6.83,10.27-11.75,2.64-4.92,4.54-10.63,5.71-17.12,1.16-6.49,1.75-13.27,1.75-20.34,0-13.16-1.46-24.08-4.36-32.76-2.91-8.68-6.87-15.06-11.88-19.13-5.01-4.07-10.74-6.11-17.19-6.11-10.83,0-19.13,4.7-24.91,14.1-5.77,9.4-8.66,22.78-8.66,40.15Z"/>
    <path d="M1129.15,84.46l1.88.54c5.37-5.37,9.78-9.42,13.23-12.15,3.45-2.73,6.78-4.92,10-6.58,3.22-1.66,6.24-2.84,9.06-3.56,2.82-.72,5.71-1.07,8.66-1.07,8.95,0,16.25,2.06,21.89,6.18,5.64,4.12,9.53,10.43,11.68,18.93,6.71-6.8,12.15-11.82,16.31-15.04,4.16-3.22,8.41-5.71,12.76-7.45,4.34-1.75,9.02-2.62,14.03-2.62,6,0,11.17.87,15.51,2.62,4.34,1.75,8.01,4.43,11.01,8.06,3,3.63,5.19,8.17,6.58,13.63,1.39,5.46,2.08,12.8,2.08,22.02v50.62c0,6.8.22,11.5.67,14.1.45,2.6,1.09,4.61,1.95,6.04.85,1.43,2.12,2.67,3.83,3.69,1.7,1.03,4.57,2.08,8.59,3.16v6.58h-52.77v-6.58c3.49-1.07,6-2.01,7.52-2.82,1.52-.81,2.8-1.92,3.83-3.36,1.03-1.43,1.83-3.65,2.42-6.65.58-3,.87-7.54.87-13.63v-35.18c0-7.61-.2-13.9-.6-18.87-.4-4.97-1.03-8.93-1.88-11.88-.85-2.95-1.88-5.28-3.09-6.98-1.21-1.7-2.57-3.18-4.1-4.43-1.52-1.25-3.31-2.24-5.37-2.95-2.06-.72-4.79-1.07-8.19-1.07-3.58,0-6.92.72-10,2.15-3.09,1.43-6.45,3.85-10.07,7.25-3.63,3.4-6.24,6.83-7.86,10.27-1.61,3.45-2.42,7.5-2.42,12.15v49.01c0,6.8.22,11.5.67,14.1.45,2.6,1.09,4.61,1.95,6.04.85,1.43,2.13,2.67,3.83,3.69,1.7,1.03,4.57,2.08,8.59,3.16v6.58h-52.77v-6.58c3.49-1.07,6-2.01,7.52-2.82,1.52-.81,2.8-1.92,3.83-3.36,1.03-1.43,1.83-3.65,2.42-6.65.58-3,.87-7.54.87-13.63v-35.18c0-7.97-.22-14.46-.67-19.47-.45-5.01-1.14-9.04-2.08-12.08-.94-3.04-2.15-5.51-3.62-7.39-1.48-1.88-2.98-3.31-4.5-4.3-1.52-.98-3.31-1.72-5.37-2.22-2.06-.49-4.39-.74-6.98-.74-3.67,0-7.12.83-10.34,2.48-3.22,1.66-6.51,4.05-9.87,7.18-3.36,3.13-5.89,6.4-7.59,9.8-1.7,3.4-2.55,7.07-2.55,11.01v50.35c0,5.1.13,9,.4,11.68s.69,4.79,1.28,6.31c.58,1.52,1.32,2.75,2.22,3.69.89.94,2.17,1.84,3.83,2.69,1.66.85,4.14,1.72,7.45,2.62v6.58h-52.64v-6.58c3.4-1.07,5.84-2.01,7.32-2.82,1.48-.81,2.75-1.92,3.83-3.36,1.07-1.43,1.88-3.63,2.42-6.58s.81-7.56.81-13.83v-58.54c0-5.73-.09-10.34-.27-13.83-.18-3.49-.8-6.29-1.88-8.39-1.07-2.1-2.71-3.67-4.9-4.7-2.2-1.03-5.3-1.9-9.33-2.62v-7.12l31.42-1.21h8.19l-1.48,21.89Z"/>
    <path d="M1358.1,188.12v28.33c0,5.82.2,10.16.6,13.02.4,2.86,1.12,5.12,2.15,6.78,1.03,1.66,2.5,3.02,4.43,4.09,1.92,1.07,5.04,2.06,9.33,2.96v6.58h-54.79v-6.58c3.22-.9,5.84-1.81,7.86-2.75,2.01-.94,3.56-2.33,4.63-4.16,1.07-1.84,1.79-4.32,2.15-7.45.36-3.13.54-7.3.54-12.49v-115.21c0-6.45-.09-11.03-.27-13.76-.18-2.73-.54-4.99-1.07-6.78-.54-1.79-1.32-3.27-2.35-4.43-1.03-1.16-2.42-2.15-4.16-2.96-1.75-.8-4.63-1.61-8.66-2.42v-7.12l31.55-1.21h8.19l-1.75,21.89,2.01.54c5.55-5.64,9.94-9.74,13.16-12.29,3.22-2.55,6.56-4.68,10-6.38,3.45-1.7,6.76-2.91,9.94-3.63,3.18-.72,6.56-1.07,10.14-1.07,14.77,0,26.12,5.53,34.04,16.58,7.92,11.06,11.88,27.24,11.88,48.54,0,14.77-2.24,27.19-6.71,37.26-4.48,10.07-10.99,17.64-19.54,22.69-8.55,5.06-18.73,7.59-30.55,7.59-6.63,0-12.62-.56-17.99-1.68s-10.29-2.62-14.77-4.5ZM1358.1,143.81c0,8.59.54,15.22,1.61,19.87,1.07,4.66,2.97,8.44,5.71,11.35,2.73,2.91,5.95,5.08,9.67,6.51,3.71,1.43,8.61,2.15,14.7,2.15,10.83,0,18.98-4.5,24.44-13.5,5.46-9,8.19-22.27,8.19-39.81,0-35.09-10.25-52.64-30.75-52.64-5.01,0-9.33.79-12.96,2.35-3.62,1.57-7.23,4.1-10.81,7.59-3.58,3.49-6.11,6.87-7.59,10.14-1.48,3.27-2.22,6.78-2.22,10.54v35.45Z"/>
    <path d="M1552.26,172.95l-2.01-.54c-7.79,7.97-15.11,13.61-21.95,16.92-6.85,3.31-14.12,4.97-21.82,4.97-6.8,0-12.8-1.32-17.99-3.96-5.19-2.64-9.18-6.36-11.95-11.15-2.78-4.79-4.16-10.32-4.16-16.58,0-13.07,6.47-23.16,19.4-30.28,12.93-7.12,32.34-11.26,58.21-12.42v-8.73c0-9.31-.9-16.65-2.69-22.02-1.79-5.37-4.61-9.31-8.46-11.82-3.85-2.51-9-3.76-15.44-3.76-6.98,0-12.6,1.83-16.85,5.5-4.25,3.67-7.45,9.18-9.6,16.52h-17.59v-17.46c8.59-4.47,15.75-7.76,21.48-9.87,5.73-2.1,11.46-3.76,17.19-4.97,5.73-1.21,11.55-1.81,17.46-1.81,8.86,0,15.98,1.41,21.35,4.23,5.37,2.82,9.4,7.14,12.08,12.96,2.69,5.82,4.03,14.59,4.03,26.32v46.73c0,6.63.04,11.3.13,14.03.09,2.73.36,5.26.81,7.59.45,2.33,1.12,4.19,2.01,5.57.89,1.39,2.22,2.57,3.96,3.56,1.75.99,4.59,2.01,8.53,3.09v6.58h-36.79l.67-19.2ZM1549.98,130.92c-18.17.18-31.78,2.6-40.82,7.25-9.04,4.66-13.56,11.68-13.56,21.08,0,5.1,1.03,9.13,3.09,12.09,2.06,2.95,4.65,4.99,7.79,6.11,3.13,1.12,6.85,1.68,11.15,1.68,6.09,0,11.61-1.48,16.58-4.43,4.97-2.95,8.84-6.71,11.61-11.28,2.77-4.57,4.16-9.08,4.16-13.56v-18.93Z"/>
    <path d="M1739.71,192.15h-52.9v-6.58c3.49-1.07,6-2.01,7.52-2.82,1.52-.81,2.8-1.92,3.83-3.36,1.03-1.43,1.83-3.65,2.42-6.65.58-3,.87-7.54.87-13.63v-35.18c0-6.26-.18-11.95-.54-17.05-.36-5.1-.96-9.29-1.81-12.56-.85-3.27-1.88-5.82-3.09-7.65-1.21-1.83-2.64-3.4-4.3-4.7-1.66-1.3-3.56-2.33-5.71-3.09-2.15-.76-4.97-1.14-8.46-1.14s-6.8.69-9.94,2.08c-3.13,1.39-6.58,3.78-10.34,7.18-3.76,3.4-6.49,6.76-8.19,10.07-1.7,3.31-2.55,7.12-2.55,11.41v50.08c0,7.7.36,13.05,1.07,16.05.71,3,2.08,5.28,4.09,6.85,2.01,1.57,5.3,2.93,9.87,4.09v6.58h-52.64v-6.58c3.49-1.07,5.97-2.01,7.45-2.82,1.48-.81,2.73-1.92,3.76-3.36,1.03-1.43,1.83-3.63,2.42-6.58.58-2.95.87-7.56.87-13.83v-58.54c0-5.73-.09-10.34-.27-13.83-.18-3.49-.8-6.29-1.88-8.39-1.07-2.1-2.71-3.67-4.9-4.7-2.2-1.03-5.3-1.9-9.33-2.62v-7.12l31.42-1.21h8.19l-1.48,21.89,1.88.54c6.62-6.71,11.97-11.5,16.05-14.37,4.07-2.86,8.19-5.08,12.35-6.65,4.16-1.56,8.57-2.35,13.23-2.35s9.15.56,12.96,1.68c3.8,1.12,7.16,2.84,10.07,5.17,2.91,2.33,5.3,5.22,7.18,8.66,1.88,3.45,3.29,7.59,4.23,12.42.94,4.83,1.41,10.97,1.41,18.4v50.62c0,6.18.18,10.65.54,13.43.36,2.78.98,4.92,1.88,6.45.89,1.52,2.19,2.8,3.89,3.83,1.7,1.03,4.65,2.13,8.86,3.29v6.58Z"/>
    <path d="M1813.83,203.16c-4.92,11.1-9.71,20.1-14.37,26.99-4.66,6.89-9.78,12.09-15.38,15.58-5.6,3.49-12.24,5.24-19.94,5.24-4.92,0-10.47-.58-16.65-1.75v-26.59h11.95c1.07,3.67,2.42,6.22,4.03,7.65,1.61,1.43,3.94,2.15,6.98,2.15,2.69,0,5.08-.52,7.18-1.54,2.1-1.03,4.3-2.8,6.58-5.3,2.28-2.51,4.97-6.36,8.06-11.55,3.09-5.19,6.56-11.77,10.41-19.74l-37.6-101.11c-2.42-6.53-4.36-11.1-5.84-13.7-1.48-2.6-3.07-4.57-4.77-5.91-1.7-1.34-4.3-2.42-7.79-3.22v-6.58h54.65v6.58c-4.21.99-7.16,1.95-8.86,2.89-1.7.94-2.96,2.15-3.76,3.62-.81,1.48-1.21,3.38-1.21,5.71s.29,4.92.87,7.52c.58,2.6,1.5,5.64,2.75,9.13l23.9,67.27,26.86-64.45c1.52-3.58,2.71-6.87,3.56-9.87.85-3,1.28-5.79,1.28-8.39,0-3.85-1.05-6.76-3.16-8.73-2.1-1.97-5.75-3.54-10.94-4.7v-6.58h50.22v6.58c-3.49.72-6.18,1.81-8.06,3.29-1.88,1.48-3.76,3.81-5.64,6.98-1.88,3.18-4.12,7.63-6.71,13.36l-48.61,109.17Z"/>
  </g>
</svg>